<svg width="24" height="27" viewBox="0 0 24 27" fill="none" xmlns="http://www.w3.org/2000/svg">
<path d="M9.31941 16.2275C7.73201 16.3645 6.25922 16.9023 5.00272 17.7391C3.36751 18.8282 4.47169 20.9287 6.43638 20.9287H9.31941" stroke="#513833" stroke-width="2" stroke-linecap="round"/>
<path d="M12.4922 19.0765C12.4922 16.7781 13.135 15.7932 13.4564 15.4648H19.2415C19.5629 15.7932 20.2056 16.7781 20.2056 19.0765C20.2056 21.703 17.6733 22.6718 16.3877 23.0002C15.1021 22.6718 12.4922 21.703 12.4922 19.0765Z" stroke="#513833" stroke-width="2" stroke-linecap="round" stroke-linejoin="round"/>
<path d="M10.1281 13.6859C11.9744 13.6859 13.4711 12.1892 13.4711 10.343C13.4711 8.49669 11.9744 7 10.1281 7C8.28185 7 6.78516 8.49669 6.78516 10.343C6.78516 12.1892 8.28185 13.6859 10.1281 13.6859Z" stroke="#513833" stroke-width="2" stroke-linecap="round" stroke-linejoin="round"/>
</svg>
