<svg width="24" height="27" viewBox="0 0 24 27" fill="none" xmlns="http://www.w3.org/2000/svg">
<path d="M6.76917 18.0769C7.34041 18.0769 7.88825 17.85 8.29217 17.4461C8.6961 17.0422 8.92302 16.4943 8.92302 15.9231V14.0769C8.92302 13.5057 9.14995 12.9579 9.55388 12.5539C9.9578 12.15 10.5056 11.9231 11.0769 11.9231C11.6481 11.9231 12.1959 11.6962 12.5999 11.2922C13.0038 10.8883 13.2307 10.3405 13.2307 9.76924V7.09408C12.8296 7.03214 12.4185 7 12 7C7.58172 7 4 10.5817 4 15C4 16.0903 4.21813 17.1297 4.61313 18.0769H6.76917Z" stroke="#513833" stroke-width="2" stroke-linecap="round" stroke-linejoin="round"/>
<path d="M19.999 14.8764C19.3829 14.5569 18.6999 14.3883 18.0058 14.3845H15.3843C14.8131 14.3845 14.2652 14.6114 13.8613 15.0154C13.4574 15.4193 13.2305 15.9671 13.2305 16.5384C13.2305 17.1096 13.4574 17.6574 13.8613 18.0614C14.2652 18.4653 14.8131 18.6922 15.3843 18.6922C15.7923 18.6922 16.1836 18.8544 16.4722 19.1428C16.7607 19.4313 16.9227 19.8227 16.9227 20.2307V21.3014H16.9289C18.7869 19.8462 19.9849 17.587 19.9997 15.0475V14.9523C19.9996 14.927 19.9994 14.9017 19.999 14.8764Z" stroke="#513833" stroke-width="2" stroke-linecap="round" stroke-linejoin="round"/>
<path d="M12 23C16.4183 23 20 19.4182 20 15C20 10.5817 16.4183 7 12 7C7.58173 7 4 10.5817 4 15C4 19.4182 7.58173 23 12 23Z" stroke="#513833" stroke-width="2" stroke-linecap="round" stroke-linejoin="round"/>
</svg>
