<svg width="20" height="20" viewBox="0 0 20 20" fill="none" xmlns="http://www.w3.org/2000/svg">
<path d="M6.85742 2V5.25018" stroke="white" stroke-width="1.5" stroke-linecap="round"/>
<path d="M12.6016 2V5.25018" stroke="white" stroke-width="1.5" stroke-linecap="round"/>
<path d="M2.17114 14.5116C2.37765 16.354 3.87519 17.8169 5.727 17.9061C7.00695 17.9677 8.31447 17.9997 9.73354 17.9997C11.1526 17.9997 12.4601 17.9677 13.7401 17.9061C15.5919 17.8169 17.0895 16.354 17.2959 14.5116C17.4351 13.2709 17.5491 11.9988 17.5491 10.703C17.5491 9.40718 17.4351 8.13513 17.2959 6.89439C17.0895 5.05197 15.5919 3.58911 13.7401 3.49993C12.4601 3.43829 11.1526 3.40625 9.73354 3.40625C8.31447 3.40625 7.00695 3.43829 5.727 3.49993C3.87519 3.58911 2.37765 5.05197 2.17114 6.89439C2.03207 8.13513 1.91797 9.40718 1.91797 10.703C1.91797 11.9988 2.03207 13.2709 2.17114 14.5116Z" stroke="white" stroke-width="1.5"/>
<path d="M6.07 8.92028C5.89327 8.92028 5.75 8.77701 5.75 8.60028C5.75 8.42354 5.89327 8.28027 6.07 8.28027" stroke="white" stroke-width="1.5"/>
<path d="M6.07031 8.92028C6.24704 8.92028 6.39032 8.77701 6.39032 8.60028C6.39032 8.42354 6.24704 8.28027 6.07031 8.28027" stroke="white" stroke-width="1.5"/>
<path d="M6.07 13.1C5.89327 13.1 5.75 12.9567 5.75 12.78C5.75 12.6032 5.89327 12.46 6.07 12.46" stroke="white" stroke-width="1.5"/>
<path d="M6.07031 13.1C6.24704 13.1 6.39032 12.9567 6.39032 12.78C6.39032 12.6032 6.24704 12.46 6.07031 12.46" stroke="white" stroke-width="1.5"/>
<path d="M9.73407 8.92028C9.55733 8.92028 9.41406 8.77701 9.41406 8.60028C9.41406 8.42354 9.55733 8.28027 9.73407 8.28027" stroke="white" stroke-width="1.5"/>
<path d="M9.73438 8.92028C9.91111 8.92028 10.0544 8.77701 10.0544 8.60028C10.0544 8.42354 9.91111 8.28027 9.73438 8.28027" stroke="white" stroke-width="1.5"/>
<path d="M13.3981 8.92028C13.2214 8.92028 13.0781 8.77701 13.0781 8.60028C13.0781 8.42354 13.2214 8.28027 13.3981 8.28027" stroke="white" stroke-width="1.5"/>
<path d="M13.3984 8.92028C13.5752 8.92028 13.7184 8.77701 13.7184 8.60028C13.7184 8.42354 13.5752 8.28027 13.3984 8.28027" stroke="white" stroke-width="1.5"/>
</svg>
